# xmcd
#
# Track frame offsets:
#	150
#	16683
#	29420
#	47473
#	64058
#	81790
#	98168
#	115185
#	131038
#	146065
#	157240
#	170250
#	186445
#	200323
#	215708
#	231278
#	246438
#	257978
#	272313
#	289370
#
# Disc length: 4089
#
# Revision: 2
# Processed by: cddbd v1.5.1PL0 Copyright (c) Steve Scherf et al.
# Submitted via: CDex 1.40Beta8
# Normalized: r1:DSETVAR1
#
DISCID=2b0ff714
DTITLE=Various Artist - Asphalt Cowboys
DYEAR=1989
DGENRE=Country
TTITLE0=Sammy's Saloon - Country Music in Texas
TTITLE1=Tennessee - Ich vergesse meinen Ärger
TTITLE2=Gunter Gabriel - Intercity Linie Nummer 4
TTITLE3=Western Union - Nach Süden
TTITLE4=Sammy's Saloon - Lousiana Träume
TTITLE5=Tennessee - Nashville, Tennessee
TTITLE6=Gunter Gabriel - Komm unter meine Decke
TTITLE7=Western Union - Bi-Ba-Baby
TTITLE8=Andy Forstmann - My Tennessee Home
TTITLE9=Tennessee - Cowboy Spiele
TTITLE10=Gunter Gabriel - Hey Boss, ich brauch mehr Geld
TTITLE11=Sammy's Saloon - Mich ruft die Autobahn
TTITLE12=Tennessee - Tausche Ufo gegen 30 Tonner Diesel
TTITLE13=Western Union - Transit Cowboy
TTITLE14=Gunter Gabriel - Ich werd gesucht in Bremerhaven
TTITLE15=Andre Lamberz - Banjo Fieber
TTITLE16=Tennessee - Ohne Träume
TTITLE17=Oliver Freytag - Mister Trucker
TTITLE18=Larry and Liane - ... eigentlich brauch ich nur dich
TTITLE19=Sammy's Saloon feat. Nancy Wood - Country Queen
EXTD=YEAR: 1989 ID3G: 2
EXTT0=
EXTT1=
EXTT2=
EXTT3=
EXTT4=
EXTT5=
EXTT6=
EXTT7=
EXTT8=
EXTT9=
EXTT10=
EXTT11=
EXTT12=
EXTT13=
EXTT14=
EXTT15=
EXTT16=
EXTT17=
EXTT18=
EXTT19=
PLAYORDER=
